<svg xmlns="http://www.w3.org/2000/svg" width="32" height="32" viewBox="0 0 32 32" fill="none">
  <path fill-rule="evenodd" clip-rule="evenodd" d="M3 16C3 12.5522 4.36964 9.24558 6.80761 6.80761C9.24558 4.36964 12.5522 3 16 3C19.4478 3 22.7544 4.36964 25.1924 6.80761C27.6304 9.24558 29 12.5522 29 16C29 19.4478 27.6304 22.7544 25.1924 25.1924C22.7544 27.6304 19.4478 29 16 29C12.5522 29 9.24558 27.6304 6.80761 25.1924C4.36964 22.7544 3 19.4478 3 16ZM15.2581 21.564L22.7427 12.2075L21.3907 11.1259L15.0085 19.1009L10.488 15.3344L9.37867 16.6656L15.2581 21.564Z" fill="#0CB9DE"/>
</svg>