<svg xmlns="http://www.w3.org/2000/svg" width="92" height="93" viewBox="0 0 92 93" fill="none">
  <path fill-rule="evenodd" clip-rule="evenodd" d="M45.8665 0.833313C20.554 0.833313 0.0332031 21.3541 0.0332031 46.6666C0.0332031 71.9791 20.554 92.5 45.8665 92.5C71.179 92.5 91.6999 71.9791 91.6999 46.6666C91.6999 21.3541 71.179 0.833313 45.8665 0.833313ZM65.7332 38.9166C66.099 38.4985 66.3775 38.0114 66.5523 37.484C66.7271 36.9566 66.7947 36.3996 66.751 35.8457C66.7073 35.2919 66.5534 34.7523 66.2981 34.2588C66.0428 33.7654 65.6915 33.3279 65.2646 32.9722C64.8378 32.6166 64.3442 32.3498 63.8128 32.1877C63.2814 32.0257 62.7229 31.9715 62.1702 32.0284C61.6175 32.0854 61.0819 32.2523 60.5946 32.5193C60.1074 32.7863 59.6785 33.1481 59.3332 33.5833L41.4165 55.0791L32.1457 45.8041C31.3599 45.0452 30.3074 44.6252 29.2149 44.6347C28.1224 44.6442 27.0773 45.0824 26.3048 45.8549C25.5323 46.6274 25.0941 47.6725 25.0846 48.765C25.0751 49.8575 25.495 50.91 26.254 51.6958L38.754 64.1958C39.1634 64.605 39.6536 64.9243 40.1933 65.1336C40.7329 65.3428 41.3103 65.4373 41.8885 65.411C42.4667 65.3848 43.0331 65.2383 43.5516 64.981C44.0701 64.7237 44.5292 64.3612 44.8999 63.9166L65.7332 38.9166Z" fill="#89D9DE"/>
</svg>