<svg xmlns="http://www.w3.org/2000/svg" width="21" height="21" viewBox="0 0 21 21" fill="none">
  <path d="M17.2221 19.5379H3.77238C2.13798 19.5379 1.34631 18.7037 1.34631 17.0012V13.5621C1.34631 11.8511 2.13798 11.0254 3.77238 11.0254H17.2221C18.8565 11.0254 19.6482 11.8596 19.6482 13.5621V17.0012C19.6482 18.7037 18.8565 19.5379 17.2221 19.5379ZM3.77238 12.3023C2.91261 12.3023 2.62319 12.481 2.62319 13.5621V17.0012C2.62319 18.0823 2.91261 18.261 3.77238 18.261H17.2221C18.0819 18.261 18.3713 18.0823 18.3713 17.0012V13.5621C18.3713 12.481 18.0819 12.3023 17.2221 12.3023H3.77238Z" fill="#425466"/>
  <path d="M17.2221 9.74834H3.77238C2.13798 9.74834 1.34631 8.91412 1.34631 7.21162V3.77257C1.34631 2.06155 2.13798 1.23584 3.77238 1.23584H17.2221C18.8565 1.23584 19.6482 2.07007 19.6482 3.77257V7.21162C19.6482 8.91412 18.8565 9.74834 17.2221 9.74834ZM3.77238 2.51272C2.91261 2.51272 2.62319 2.69148 2.62319 3.77257V7.21162C2.62319 8.29271 2.91261 8.47147 3.77238 8.47147H17.2221C18.0819 8.47147 18.3713 8.29271 18.3713 7.21162V3.77257C18.3713 2.69148 18.0819 2.51272 17.2221 2.51272H3.77238Z" fill="#425466"/>
</svg>