<svg xmlns="http://www.w3.org/2000/svg" width="22" height="21" viewBox="0 0 22 21" fill="none">
  <path d="M17.8161 9.74834H14.3771C12.666 9.74834 11.8403 8.99073 11.8403 7.42443V3.55975C11.8403 1.99345 12.6746 1.23584 14.3771 1.23584H17.8161C19.5271 1.23584 20.3528 1.99345 20.3528 3.55975V7.41592C20.3528 8.99073 19.5186 9.74834 17.8161 9.74834ZM14.3771 2.51272C13.2364 2.51272 13.1172 2.83619 13.1172 3.55975V7.41592C13.1172 8.14799 13.2364 8.46295 14.3771 8.46295H17.8161C18.9568 8.46295 19.076 8.13948 19.076 7.41592V3.55975C19.076 2.82768 18.9568 2.51272 17.8161 2.51272H14.3771Z" fill="white"/>
  <path d="M17.8161 19.5379H14.3771C12.666 19.5379 11.8403 18.7037 11.8403 17.0012V13.5621C11.8403 11.8511 12.6746 11.0254 14.3771 11.0254H17.8161C19.5271 11.0254 20.3528 11.8596 20.3528 13.5621V17.0012C20.3528 18.7037 19.5186 19.5379 17.8161 19.5379ZM14.3771 12.3023C13.3726 12.3023 13.1172 12.5576 13.1172 13.5621V17.0012C13.1172 18.0056 13.3726 18.261 14.3771 18.261H17.8161C18.8206 18.261 19.076 18.0056 19.076 17.0012V13.5621C19.076 12.5576 18.8206 12.3023 17.8161 12.3023H14.3771Z" fill="white"/>
  <path d="M8.02754 9.74834H4.58848C2.87747 9.74834 2.05176 8.99073 2.05176 7.42443V3.55975C2.05176 1.99345 2.88598 1.23584 4.58848 1.23584H8.02754C9.73855 1.23584 10.5643 1.99345 10.5643 3.55975V7.41592C10.5643 8.99073 9.73004 9.74834 8.02754 9.74834ZM4.58848 2.51272C3.44781 2.51272 3.32863 2.83619 3.32863 3.55975V7.41592C3.32863 8.14799 3.44781 8.46295 4.58848 8.46295H8.02754C9.16821 8.46295 9.28739 8.13948 9.28739 7.41592V3.55975C9.28739 2.82768 9.16821 2.51272 8.02754 2.51272H4.58848Z" fill="white"/>
  <path d="M8.02754 19.5379H4.58848C2.87747 19.5379 2.05176 18.7037 2.05176 17.0012V13.5621C2.05176 11.8511 2.88598 11.0254 4.58848 11.0254H8.02754C9.73855 11.0254 10.5643 11.8596 10.5643 13.5621V17.0012C10.5643 18.7037 9.73004 19.5379 8.02754 19.5379ZM4.58848 12.3023C3.58401 12.3023 3.32863 12.5576 3.32863 13.5621V17.0012C3.32863 18.0056 3.58401 18.261 4.58848 18.261H8.02754C9.03201 18.261 9.28739 18.0056 9.28739 17.0012V13.5621C9.28739 12.5576 9.03201 12.3023 8.02754 12.3023H4.58848Z" fill="white"/>
</svg>