<svg xmlns="http://www.w3.org/2000/svg" width="49" height="49" viewBox="0 0 49 49" fill="none">
  <path d="M32.0967 32.7773L24.0967 24.7773L16.0967 32.7773" stroke="#9CA3AF" stroke-width="2" stroke-linecap="round" stroke-linejoin="round"/>
  <path d="M24.0967 24.7773V42.7773" stroke="#9CA3AF" stroke-width="2" stroke-linecap="round" stroke-linejoin="round"/>
  <path d="M40.8766 37.5573C42.8273 36.4939 44.3683 34.8111 45.2563 32.7746C46.1444 30.738 46.329 28.4638 45.781 26.3107C45.233 24.1576 43.9836 22.2483 42.2299 20.8842C40.4763 19.5201 38.3183 18.7788 36.0966 18.7773H33.5766C32.9712 16.4358 31.8429 14.262 30.2765 12.4193C28.7101 10.5766 26.7463 9.11301 24.5328 8.13853C22.3193 7.16404 19.9137 6.70403 17.4968 6.79308C15.08 6.88212 12.7147 7.51791 10.579 8.65264C8.44317 9.78737 6.59242 11.3915 5.16584 13.3445C3.73926 15.2974 2.77398 17.5484 2.34256 19.9281C1.91114 22.3078 2.02481 24.7544 2.67503 27.0838C3.32524 29.4133 4.49508 31.565 6.0966 33.3773" stroke="#9CA3AF" stroke-width="2" stroke-linecap="round" stroke-linejoin="round"/>
  <path d="M32.0967 32.7773L24.0967 24.7773L16.0967 32.7773" stroke="#9CA3AF" stroke-width="2" stroke-linecap="round" stroke-linejoin="round"/>
</svg>